HIERARCHY
ROOT Hips
{
	OFFSET 0.000000 0.000000 0.000000
	CHANNELS 6 Xposition Yposition Zposition Zrotation Yrotation Xrotation 
	JOINT LHipJoint
	{
		OFFSET 0.000000 0.000000 0.000000
		CHANNELS 3 Zrotation Yrotation Xrotation
		JOINT LeftUpLeg
		{
			OFFSET 1.363060 -1.794630 0.839290
			CHANNELS 3 Zrotation Yrotation Xrotation
			JOINT LeftLeg
			{
				OFFSET 2.448110 -6.726130 0.000000
				CHANNELS 3 Zrotation Yrotation Xrotation
				JOINT LeftFoot
				{
					OFFSET 2.562200 -7.039590 0.000000
					CHANNELS 3 Zrotation Yrotation Xrotation
					JOINT LeftToeBase
					{
						OFFSET 0.157640 -0.433110 2.322550
						CHANNELS 3 Zrotation Yrotation Xrotation
						End Site
						{
							OFFSET 0.000000 0.000000 0.000000
						}
					}
				}
			}
		}
	}
	JOINT RHipJoint
	{
		OFFSET 0.000000 0.000000 0.000000
		CHANNELS 3 Zrotation Yrotation Xrotation
		JOINT RightUpLeg
		{
			OFFSET -1.305520 -1.794630 0.839290
			CHANNELS 3 Zrotation Yrotation Xrotation
			JOINT RightLeg
			{
				OFFSET -2.542530 -6.985550 0.000000
				CHANNELS 3 Zrotation Yrotation Xrotation
				JOINT RightFoot
				{
					OFFSET -2.568260 -7.056230 0.000000
					CHANNELS 3 Zrotation Yrotation Xrotation
					JOINT RightToeBase
					{
						OFFSET -0.164730 -0.452590 2.363150
						CHANNELS 3 Zrotation Yrotation Xrotation
						End Site
						{
							OFFSET 0.000000 0.000000 0.000000
						}
					}
				}
			}
		}
	}
	JOINT LowerBack
	{
		OFFSET 0.000000 0.000000 0.000000
		CHANNELS 3 Zrotation Yrotation Xrotation
		JOINT Spine
		{
			OFFSET 0.028270 2.035590 -0.193380
			CHANNELS 3 Zrotation Yrotation Xrotation
			JOINT Spine1
			{
				OFFSET 0.056720 2.048850 -0.042750
				CHANNELS 3 Zrotation Yrotation Xrotation
				JOINT Neck
				{
					OFFSET 0.000000 0.000000 0.000000
					CHANNELS 3 Zrotation Yrotation Xrotation
					JOINT Neck1
					{
						OFFSET -0.054170 1.746240 0.172020
						CHANNELS 3 Zrotation Yrotation Xrotation
						JOINT Head
						{
							OFFSET 0.104070 1.761360 -0.123970
							CHANNELS 3 Zrotation Yrotation Xrotation
							End Site
							{
								OFFSET 0.000000 0.000000 0.000000
							}
						}
					}
				}
				JOINT LeftShoulder
				{
					OFFSET 0.000000 0.000000 0.000000
					CHANNELS 3 Zrotation Yrotation Xrotation
					JOINT LeftArm
					{
						OFFSET 3.362410 1.200890 -0.311210
						CHANNELS 3 Zrotation Yrotation Xrotation
						JOINT LeftForeArm
						{
							OFFSET 4.983000 -0.000000 -0.000000
							CHANNELS 3 Zrotation Yrotation Xrotation
							JOINT LeftHand
							{
								OFFSET 3.483560 -0.000000 -0.000000
								CHANNELS 3 Zrotation Yrotation Xrotation
								JOINT LeftFingerBase
								{
									OFFSET 0.000000 0.000000 0.000000
									CHANNELS 3 Zrotation Yrotation Xrotation
									JOINT LeftHandIndex1
									{
										OFFSET 0.715260 -0.000000 -0.000000
										CHANNELS 3 Zrotation Yrotation Xrotation
										End Site
										{
											OFFSET 0.000000 0.000000 0.000000
										}
									}
								}
								JOINT LThumb
								{
									OFFSET 0.000000 0.000000 0.000000
									CHANNELS 3 Zrotation Yrotation Xrotation
									End Site
									{
										OFFSET 0.000000 0.000000 0.000000
									}
								}
							}
						}
					}
				}
				JOINT RightShoulder
				{
					OFFSET 0.000000 0.000000 0.000000
					CHANNELS 3 Zrotation Yrotation Xrotation
					JOINT RightArm
					{
						OFFSET -3.136600 1.374050 -0.404650
						CHANNELS 3 Zrotation Yrotation Xrotation
						JOINT RightForeArm
						{
							OFFSET -5.241900 -0.000000 -0.000000
							CHANNELS 3 Zrotation Yrotation Xrotation
							JOINT RightHand
							{
								OFFSET -3.444170 -0.000000 -0.000000
								CHANNELS 3 Zrotation Yrotation Xrotation
								JOINT RightFingerBase
								{
									OFFSET 0.000000 0.000000 0.000000
									CHANNELS 3 Zrotation Yrotation Xrotation
									JOINT RightHandIndex1
									{
										OFFSET -0.622530 -0.000000 -0.000000
										CHANNELS 3 Zrotation Yrotation Xrotation
										End Site
										{
											OFFSET 0.000000 0.000000 0.000000
										}
									}
								}
								JOINT RThumb
								{
									OFFSET 0.000000 0.000000 0.000000
									CHANNELS 3 Zrotation Yrotation Xrotation
									End Site
									{
										OFFSET 0.000000 0.000000 0.000000
									}
								}
							}
						}
					}
				}
			}
		}
	}
}
MOTION
Frames: 7
Frame Time: 0.008333
17.111289 16.661496 -14.767498 -3.744489 26.702436 14.334456 8.686878 2.174769 -0.153965 -11.230338 -32.804895 -35.574792 4.107071 17.197718 46.660647 0.050253 9.081248 -20.674654 0.003100 0.360500 0.990600 -10.498334 -3.421487 0.683524 11.729880 24.790261 -33.075464 -2.125814 -15.229513 39.707397 -0.129634 -14.733511 -27.120976 -2.877200 -10.493500 30.590000 -0.563320 -1.285866 3.102527 2.362947 -2.338054 -5.462047 5.708085 0.140314 -12.607489 -6.411867 -16.911740 -1.909017 15.733300 -22.135599 -8.272549 7.807300 -10.653600 -2.921500 2.905195 -11.271041 2.021693 -48.515154 34.031373 22.625116 155.026205 -27.579664 -113.776439 1.238823 0.783763 -13.111662 -5.990465 25.809165 -3.164600 -7.125000 0.000000 0.000000 -36.801600 51.324100 -6.477700 -3.361761 12.397373 6.463712 34.400387 -22.899478 46.970980 -151.544835 29.797161 -111.523527 1.607231 0.510893 -31.812416 -26.928192 40.881317 -19.518600 7.125000 0.000000 0.000000 3.731400 14.281400 4.544800 
17.110208 16.657928 -14.760578 -3.464651 26.421672 14.389814 8.684900 2.188445 -0.149423 -11.622268 -32.681856 -35.377883 4.100656 17.169216 46.658912 0.005367 9.271763 -20.564525 0.000500 0.137800 0.378700 -10.496032 -3.424830 0.676144 11.453124 24.801886 -33.129142 -2.147506 -15.257440 39.763130 -0.019244 -15.069288 -26.808874 -2.716300 -10.221000 29.695400 -0.877465 -1.231517 3.190999 2.320518 -2.286920 -5.445088 5.797356 0.185365 -12.592741 -6.667295 -16.895086 -1.927497 15.824780 -22.148739 -8.215956 7.880700 -10.651000 -2.828000 2.887583 -11.278554 2.035854 -48.257341 33.937417 23.193446 155.112516 -27.480161 -113.838458 1.221472 0.781726 -12.530067 -6.437968 25.359793 -3.290600 -7.125000 0.000000 0.000000 -36.847000 50.871100 -6.037600 -3.381711 12.362828 6.472098 34.222663 -22.645002 47.015282 -151.459491 29.901935 -111.474539 1.604385 0.504347 -31.895202 -26.871790 41.027840 -19.527700 7.125000 0.000000 0.000000 3.801600 14.416900 4.637200 
17.109235 16.658036 -14.753117 -3.348512 26.168685 14.363451 8.675854 2.200634 -0.154021 -11.876554 -32.445354 -35.168277 4.085684 17.136352 46.629321 -0.068924 9.586528 -20.413063 0.006800 -0.531100 -1.459400 -10.504034 -3.424935 0.678333 11.271896 24.980209 -33.197813 -2.155336 -15.274809 39.769786 0.093180 -15.355286 -26.390051 -2.726700 -10.239000 29.754100 -1.009804 -1.188491 3.242634 2.316889 -2.239900 -5.418949 5.880279 0.217125 -12.519312 -6.746323 -16.838437 -2.039452 15.674793 -22.084523 -8.174544 7.817200 -10.610600 -2.818000 2.893252 -11.276725 2.047603 -48.159869 33.869172 23.649895 155.177388 -27.396818 -113.896571 1.203618 0.775033 -11.860000 -6.850073 24.790712 -3.379200 -7.125000 0.000000 0.000000 -36.784900 50.330500 -5.485600 -3.382181 12.343108 6.473512 34.035049 -22.438141 47.055078 -151.419083 29.993127 -111.411387 1.634638 0.467865 -31.855200 -26.976391 41.957889 -19.955900 7.125000 0.000000 0.000000 3.991300 15.396900 4.917800 
17.108803 16.663766 -14.743494 -3.341686 25.998062 14.276832 8.659697 2.208761 -0.159813 -11.986295 -32.254430 -34.963009 4.084881 17.105908 46.613463 -0.047234 9.438844 -20.384789 0.007200 -0.546700 -1.502200 -10.498538 -3.426487 0.679510 11.268137 25.083254 -33.118575 -2.154538 -15.258100 39.741761 0.051736 -15.071600 -26.302957 -2.919100 -10.562900 30.819600 -1.004985 -1.158283 3.290934 2.318670 -2.197880 -5.378405 5.893410 0.230410 -12.407448 -6.766377 -16.859952 -2.152473 15.422600 -22.120480 -8.119941 7.693600 -10.619300 -2.817900 2.906721 -11.271756 2.059843 -48.013554 33.813260 24.049552 155.272651 -27.310224 -113.938520 1.222613 0.753952 -11.298031 -6.506961 24.744591 -3.236200 -7.125000 0.000000 0.000000 -36.475300 50.358200 -5.454500 -3.372334 12.332564 6.465786 34.041272 -22.368514 47.190091 -151.376845 30.055623 -111.371997 1.636490 0.466008 -31.575790 -27.695592 42.042890 -20.529500 7.125000 0.000000 0.000000 3.652700 15.668400 4.511200 
17.106964 16.667443 -14.731817 -3.401356 25.880961 14.157651 8.646766 2.216156 -0.165304 -11.999959 -32.122639 -34.780273 4.092774 17.083300 46.615780 0.000965 9.179027 -20.413655 0.006400 -0.517500 -1.422000 -10.492865 -3.432139 0.685986 11.364392 25.231575 -32.979931 -2.153370 -15.240231 39.731914 0.107448 -15.290153 -26.178958 -2.727000 -10.239400 29.755500 -0.947411 -1.129933 3.378455 2.307279 -2.152979 -5.349073 5.848986 0.240053 -12.357018 -6.787938 -16.898288 -2.223312 15.210331 -22.177116 -7.961803 7.583700 -10.647600 -2.758200 2.911549 -11.277328 2.081946 -47.685025 33.622063 24.313136 155.279442 -27.323489 -113.935075 1.237932 0.737398 -11.082252 -6.144974 24.833618 -3.102600 -7.125000 0.000000 0.000000 -36.241400 50.502300 -5.551700 -3.368132 12.331013 6.444726 34.128437 -22.544023 47.418921 -151.413832 30.012138 -111.389131 1.627332 0.485710 -31.228739 -28.648893 41.649645 -21.101200 7.125000 0.000000 0.000000 3.063300 15.517500 3.775700 
17.102856 16.667010 -14.723275 -3.505163 25.737136 14.039441 8.639494 2.223906 -0.171303 -11.954043 -31.958310 -34.657845 4.090439 17.072793 46.616065 -0.017308 9.323402 -20.501284 0.030300 -1.123100 -3.087500 -10.499349 -3.436241 0.698886 11.492803 25.407234 -32.943915 -2.164726 -15.254566 39.787643 0.241447 -15.851776 -25.937010 -2.493400 -9.826000 28.415000 -0.863419 -1.112104 3.518868 2.297761 -2.119445 -5.346555 5.783711 0.244388 -12.401437 -6.682289 -16.873697 -2.300103 14.907448 -22.131398 -7.688345 7.408400 -10.641200 -2.691600 2.918236 -11.278178 2.091630 -47.470170 33.447815 24.371349 155.240454 -27.343338 -113.937599 1.198856 0.761519 -11.203349 -6.964286 24.521174 -3.385100 -7.125000 0.000000 0.000000 -36.689600 50.091300 -5.228800 -3.362653 12.335326 6.435898 34.090406 -22.621011 47.548669 -151.504037 29.920834 -111.429453 1.629662 0.495116 -31.331665 -28.911747 41.634230 -21.297700 7.125000 0.000000 0.000000 2.923200 15.571900 3.604600 
17.100477 16.665713 -14.717329 -3.435640 25.620265 14.103437 8.643194 2.227616 -0.170716 -12.022681 -31.892275 -34.654133 4.076198 17.068998 46.594938 -0.079190 9.647744 -20.474676 0.069000 -1.694700 -4.662700 -10.502752 -3.436351 0.697628 11.458581 25.308251 -33.041724 -2.195011 -15.295128 39.895803 0.221476 -15.699278 -25.865936 -2.643400 -10.094100 29.282000 -0.901097 -1.128137 3.528434 2.279570 -2.142585 -5.352658 5.744660 0.227151 -12.393994 -6.645544 -16.796152 -2.378363 14.650852 -22.024768 -7.438742 7.271800 -10.600400 -2.629600 2.920754 -11.272846 2.093513 -47.446593 33.330263 24.377906 155.243500 -27.311052 -113.964182 1.151190 0.790514 -11.529316 -7.846640 24.092682 -3.666000 -7.125000 0.000000 0.000000 -37.105400 49.577600 -4.782500 -3.362663 12.320865 6.435501 34.039703 -22.418927 47.421029 -151.439386 29.977680 -111.406440 1.622496 0.494725 -31.643111 -28.379801 41.689194 -20.910600 7.125000 0.000000 0.000000 3.209700 15.482400 3.955300 
